<?xml version="1.0" encoding="utf-8"?><svg viewBox="0 0 28 28" xmlns="http://www.w3.org/2000/svg" xmlns:xlink="http://www.w3.org/1999/xlink"><style>:root>svg{display:none}:root>svg:target{display:block}</style><svg fill="none" viewBox="0 0 19 21" id="ico-adress" xmlns="http://www.w3.org/2000/svg"><path d="M9.499.083C4.619.083.645 4.057.645 8.938c0 2.19.803 4.2 2.124 5.745l.004.004.003.004s3.766 4.298 5.107 5.578a2.352 2.352 0 003.23 0c1.529-1.458 5.11-5.58 5.11-5.58l.002-.003.003-.003a8.82 8.82 0 002.125-5.745c0-4.88-3.974-8.855-8.854-8.855zm0 1.563a7.28 7.28 0 017.291 7.292 7.24 7.24 0 01-1.75 4.73c-.007.008-3.671 4.199-5.005 5.47a.762.762 0 01-1.073 0c-1.115-1.063-4.994-5.457-5.005-5.47l-.001-.001a7.244 7.244 0 01-1.749-4.73 7.28 7.28 0 017.292-7.291zm0 4.167c-.977 0-1.808.394-2.342.995-.534.6-.783 1.37-.783 2.13 0 .76.25 1.53.783 2.13.534.6 1.365.995 2.342.995.976 0 1.808-.395 2.341-.995.534-.6.784-1.37.784-2.13 0-.76-.25-1.53-.784-2.13-.533-.601-1.365-.995-2.341-.995zm0 1.562c.586 0 .926.192 1.174.47.247.279.388.68.388 1.093 0 .412-.14.814-.388 1.092-.248.279-.588.47-1.174.47s-.927-.191-1.174-.47c-.248-.278-.389-.68-.389-1.092 0-.413.141-.814.389-1.093.247-.278.588-.47 1.174-.47z" fill="#00AFD8"/></svg><svg fill="none" viewBox="0 0 28 28" id="ico-arrow" xmlns="http://www.w3.org/2000/svg"><path d="M14 4.667c.645 0 1.167.522 1.167 1.167V19.35l5.009-5.008a1.167 1.167 0 011.65 1.65l-7 7a1.166 1.166 0 01-1.65 0l-7-7a1.167 1.167 0 111.65-1.65l5.008 5.008V5.834c0-.645.522-1.167 1.167-1.167z" fill="#BFBFBF"/></svg><svg fill="none" viewBox="0 0 24 24" id="ico-arrow-link" xmlns="http://www.w3.org/2000/svg"><path d="M12.293 5.293a1 1 0 011.414 0l6 6a1 1 0 010 1.414l-6 6a1 1 0 01-1.414-1.414L16.586 13H5a1 1 0 110-2h11.586l-4.293-4.293a1 1 0 010-1.414z" fill="#fff"/></svg><svg fill="none" viewBox="0 0 24 24" id="ico-ig" xmlns="http://www.w3.org/2000/svg"><g clip-path="url(#dclip0_237_1467)" fill="#BFBFBF"><path d="M12 2.16c3.206 0 3.586.015 4.847.071 1.172.052 1.805.249 2.226.413a3.71 3.71 0 011.379.895c.421.422.68.82.895 1.378.164.422.36 1.06.412 2.227.057 1.265.07 1.645.07 4.847 0 3.206-.013 3.586-.07 4.846-.051 1.172-.248 1.805-.412 2.227-.216.558-.478.961-.895 1.378a3.69 3.69 0 01-1.379.895c-.421.165-1.059.361-2.226.413-1.266.056-1.645.07-4.847.07-3.206 0-3.586-.014-4.847-.07-1.172-.052-1.805-.248-2.226-.413a3.71 3.71 0 01-1.379-.895 3.691 3.691 0 01-.895-1.378c-.164-.422-.36-1.06-.412-2.227-.057-1.265-.07-1.645-.07-4.846 0-3.207.013-3.586.07-4.847.051-1.172.248-1.805.412-2.227.216-.558.478-.96.895-1.378.422-.422.82-.68 1.379-.895.421-.164 1.059-.361 2.226-.413 1.261-.056 1.64-.07 4.847-.07zM12 0C8.742 0 8.334.014 7.055.07 5.78.127 4.903.333 4.144.628a5.857 5.857 0 00-2.128 1.388A5.88 5.88 0 00.628 4.139C.333 4.903.127 5.775.07 7.05.014 8.334 0 8.742 0 12s.014 3.666.07 4.945c.057 1.275.263 2.152.558 2.911.31.792.717 1.463 1.388 2.128a5.866 5.866 0 002.123 1.383c.764.296 1.636.502 2.911.558 1.28.056 1.688.07 4.945.07 3.258 0 3.666-.014 4.946-.07 1.275-.056 2.151-.262 2.91-.558a5.866 5.866 0 002.124-1.383 5.866 5.866 0 001.383-2.123c.295-.764.501-1.636.558-2.911.056-1.28.07-1.688.07-4.945 0-3.258-.014-3.666-.07-4.946-.057-1.275-.263-2.151-.558-2.91a5.62 5.62 0 00-1.374-2.133A5.866 5.866 0 0019.861.633C19.097.338 18.225.13 16.95.075 15.666.015 15.258 0 12 0z"/><path d="M12 5.836A6.166 6.166 0 005.836 12 6.166 6.166 0 0012 18.164 6.166 6.166 0 0018.164 12 6.166 6.166 0 0012 5.836zm0 10.162A3.999 3.999 0 1112.001 8 3.999 3.999 0 0112 15.998zM19.847 5.592a1.44 1.44 0 11-2.879 0 1.44 1.44 0 012.879 0z"/></g><defs><clipPath id="dclip0_237_1467"><path fill="#fff" d="M0 0h24v24H0z"/></clipPath></defs></svg><svg fill="none" viewBox="0 0 14 21" id="ico-play" xmlns="http://www.w3.org/2000/svg"><path d="M14 10.5L0 0v21l14-10.5z" fill="#00AFD8"/></svg><svg fill="none" viewBox="0 0 19 21" id="ico-subway" xmlns="http://www.w3.org/2000/svg"><path fill-rule="evenodd" clip-rule="evenodd" d="M8.708.02a9.042 9.042 0 00-3.34.998c-1.032.535-1.73 1.067-2.561 1.95a9.461 9.461 0 00-1.741 2.51c-1.448 2.966-1.42 6.51.077 9.418 1.278 2.485 3.488 4.296 6.062 4.969.76.199 1.214.263 2.028.289.847.026 1.451-.025 2.207-.188 2.89-.622 5.313-2.61 6.604-5.414.434-.944.728-1.933.87-2.936.083-.579.113-1.84.058-2.424-.299-3.173-1.985-6.018-4.571-7.712A9.011 9.011 0 0010.552.052 12.593 12.593 0 008.708.021zm1.985 1.414c3.55.571 6.37 3.61 6.905 7.444.098.699.098 1.78 0 2.483-.449 3.245-2.601 5.971-5.531 7.008-2.608.922-5.448.38-7.656-1.46-.391-.326-1.119-1.12-1.421-1.55-1.118-1.594-1.648-3.28-1.648-5.24 0-2.03.603-3.861 1.809-5.494.494-.669 1.376-1.496 2.124-1.993a8.223 8.223 0 013.51-1.256 9.566 9.566 0 011.908.058zM5.59 4.798c-.384.063-.668.31-.766.666-.04.15-.05 1.03-.05 4.733 0 2.503.013 4.598.028 4.656.015.058.072.16.125.229.333.42 1.03.382 1.331-.074l.112-.168.018-3.364.02-3.363 1.147 2.49c.631 1.37 1.207 2.587 1.28 2.706.191.312.355.4.708.386.322-.013.452-.087.624-.358.058-.09.63-1.303 1.271-2.695l1.167-2.53.018 3.364.019 3.364.111.168c.302.456.998.494 1.332.074a.782.782 0 00.125-.229c.015-.058.028-2.153.028-4.655 0-3.734-.01-4.584-.051-4.736-.113-.413-.46-.66-.944-.673-.385-.01-.602.067-.813.29-.194.207-.298.426-1.978 4.145-.507 1.122-.934 2.026-.95 2.01-.014-.018-.548-1.175-1.184-2.573-1.494-3.28-1.538-3.37-1.742-3.586-.232-.245-.581-.343-.986-.277z" fill="#00AFD8"/></svg><svg fill="none" viewBox="0 0 13 17" id="ico-tel" xmlns="http://www.w3.org/2000/svg"><path d="M4.213.006a2.317 2.317 0 00-.836.092l-.993.298A3.184 3.184 0 00.22 2.636C-.401 5.025.31 7.85 2.158 11.03c1.846 3.177 3.95 5.196 6.325 5.854a3.19 3.19 0 003.034-.75l.755-.709a2.34 2.34 0 00.289-3.06l-1.091-1.501a2.331 2.331 0 00-2.564-.86l-1.707.519c-.072.02-.243-.078-.393-.209-.266-.235-.635-.708-1.028-1.385v-.001c-.423-.727-.603-1.202-.675-1.483-.073-.281-.055-.315-.045-.41a.202.202 0 01.066-.126v-.001l1.274-1.18c.729-.675.949-1.755.538-2.663l-.768-1.697A2.334 2.334 0 004.213.006zm-.09 1.272c.384.029.739.263.9.622l.77 1.696c.185.41.092.88-.244 1.192L4.276 5.967c-.26.24-.428.57-.468.924v.001c-.01.093-.035.44.077.875.112.434.343 1.01.808 1.808.434.745.844 1.311 1.288 1.702.145.126.748.713 1.57.47l.002-.001 1.715-.52a1.08 1.08 0 011.188.394l1.091 1.501a1.035 1.035 0 01-.13 1.37l-.756.71c-.483.455-1.2.633-1.846.453-1.92-.532-3.821-2.256-5.573-5.27C1.488 7.366.94 4.87 1.436 2.962a1.932 1.932 0 011.305-1.344l.992-.298c.13-.038.26-.052.39-.042z" fill="#00AFD8"/></svg></svg>